<?xml version="1.0" encoding="UTF-8" standalone="no"?>
<!DOCTYPE svg PUBLIC "-//W3C//DTD SVG 1.1//EN" "http://www.w3.org/Graphics/SVG/1.1/DTD/svg11.dtd">
<!-- Generated by graphviz version 2.40.1 (20161225.0304)
 -->
<!-- Title: sequece_detector Pages: 1 -->
<svg width="302pt" height="754pt" viewBox="0.00 0.00 301.89 754.40" xmlns="http://www.w3.org/2000/svg" xmlns:xlink="http://www.w3.org/1999/xlink">
<g id="graph0" class="graph" transform="scale(1 1) rotate(0) translate(4 750.4)">
<title>sequece_detector</title>
<polygon fill="#ffffff" stroke="transparent" points="-4,4 -4,-750.4 297.8906,-750.4 297.8906,4 -4,4"/>
<!-- S0 -->
<g id="node1" class="node">
<title>S0</title>
<ellipse fill="none" stroke="#000000" cx="101" cy="-728.4" rx="27" ry="18"/>
<text text-anchor="middle" x="101" y="-724.2" font-family="Times,serif" font-size="14.00" fill="#000000">S0</text>
</g>
<!-- S0&#45;&gt;S0 -->
<g id="edge1" class="edge">
<title>S0-&gt;S0</title>
<path fill="none" stroke="#000000" d="M125.5325,-736.5211C136.5078,-737.2945 146,-734.5875 146,-728.4 146,-724.2428 141.7151,-721.6567 135.5743,-720.6417"/>
<polygon fill="#000000" stroke="#000000" points="135.6524,-717.1424 125.5325,-720.2789 135.3995,-724.1378 135.6524,-717.1424"/>
<text text-anchor="middle" x="154.9453" y="-724.2" font-family="Times,serif" font-size="14.00" fill="#000000">0/0</text>
</g>
<!-- S1 -->
<g id="node2" class="node">
<title>S1</title>
<ellipse fill="none" stroke="#000000" cx="55" cy="-639.6" rx="27" ry="18"/>
<text text-anchor="middle" x="55" y="-635.4" font-family="Times,serif" font-size="14.00" fill="#000000">S1</text>
</g>
<!-- S0&#45;&gt;S1 -->
<g id="edge2" class="edge">
<title>S0-&gt;S1</title>
<path fill="none" stroke="#000000" d="M77.2108,-719.5783C65.2891,-713.8038 51.9619,-704.9648 45.1094,-692.4 40.8087,-684.5143 41.144,-675.0887 43.2357,-666.3981"/>
<polygon fill="#000000" stroke="#000000" points="46.6341,-667.2602 46.3254,-656.6699 39.9625,-665.1413 46.6341,-667.2602"/>
<text text-anchor="middle" x="54.9453" y="-679.8" font-family="Times,serif" font-size="14.00" fill="#000000">1/0</text>
</g>
<!-- S1&#45;&gt;S0 -->
<g id="edge4" class="edge">
<title>S1-&gt;S0</title>
<path fill="none" stroke="#000000" d="M63.842,-656.669C70.5169,-669.5543 79.7954,-687.4659 87.4107,-702.1667"/>
<polygon fill="#000000" stroke="#000000" points="84.4232,-704.009 92.1307,-711.2785 90.6388,-700.7892 84.4232,-704.009"/>
<text text-anchor="middle" x="91.9453" y="-679.8" font-family="Times,serif" font-size="14.00" fill="#000000">1/0</text>
</g>
<!-- S2 -->
<g id="node3" class="node">
<title>S2</title>
<ellipse fill="none" stroke="#000000" cx="101" cy="-550.8" rx="27" ry="18"/>
<text text-anchor="middle" x="101" y="-546.6" font-family="Times,serif" font-size="14.00" fill="#000000">S2</text>
</g>
<!-- S1&#45;&gt;S2 -->
<g id="edge3" class="edge">
<title>S1-&gt;S2</title>
<path fill="none" stroke="#000000" d="M63.8693,-622.4785C70.5512,-609.5795 79.8309,-591.6655 87.4417,-576.9734"/>
<polygon fill="#000000" stroke="#000000" points="90.666,-578.3582 92.158,-567.869 84.4505,-575.1384 90.666,-578.3582"/>
<text text-anchor="middle" x="91.9453" y="-591" font-family="Times,serif" font-size="14.00" fill="#000000">0/0</text>
</g>
<!-- S2&#45;&gt;S0 -->
<g id="edge6" class="edge">
<title>S2-&gt;S0</title>
<path fill="none" stroke="#000000" d="M102.8209,-569.0957C103.3053,-574.7642 103.7602,-581.0351 104,-586.8 105.9505,-633.6928 105.9505,-645.5072 104,-692.4 103.8988,-694.8321 103.7594,-697.3542 103.5956,-699.8832"/>
<polygon fill="#000000" stroke="#000000" points="100.0868,-699.8683 102.8209,-710.1043 107.0668,-700.3974 100.0868,-699.8683"/>
<text text-anchor="middle" x="114.9453" y="-635.4" font-family="Times,serif" font-size="14.00" fill="#000000">1/0</text>
</g>
<!-- S3 -->
<g id="node4" class="node">
<title>S3</title>
<ellipse fill="none" stroke="#000000" cx="164" cy="-462" rx="27" ry="18"/>
<text text-anchor="middle" x="164" y="-457.8" font-family="Times,serif" font-size="14.00" fill="#000000">S3</text>
</g>
<!-- S2&#45;&gt;S3 -->
<g id="edge5" class="edge">
<title>S2-&gt;S3</title>
<path fill="none" stroke="#000000" d="M110.0126,-533.6321C115.8374,-523.0418 123.8503,-509.3588 132.1094,-498 135.2811,-493.6379 138.8826,-489.1851 142.495,-484.9652"/>
<polygon fill="#000000" stroke="#000000" points="145.3406,-487.0309 149.3452,-477.2221 140.0977,-482.3927 145.3406,-487.0309"/>
<text text-anchor="middle" x="140.9453" y="-502.2" font-family="Times,serif" font-size="14.00" fill="#000000">0/0</text>
</g>
<!-- S3&#45;&gt;S0 -->
<g id="edge7" class="edge">
<title>S3-&gt;S0</title>
<path fill="none" stroke="#000000" d="M161.1019,-480.1543C155.4725,-514.8042 142.3459,-592.6989 128,-657.6 124.552,-673.199 124.6033,-677.4393 119,-692.4 117.7615,-695.7067 116.3107,-699.1106 114.7795,-702.4445"/>
<polygon fill="#000000" stroke="#000000" points="111.5934,-700.9932 110.3614,-711.5162 117.8867,-704.0583 111.5934,-700.9932"/>
<text text-anchor="middle" x="150.9453" y="-591" font-family="Times,serif" font-size="14.00" fill="#000000">0/0</text>
</g>
<!-- S4 -->
<g id="node5" class="node">
<title>S4</title>
<ellipse fill="none" stroke="#000000" cx="121" cy="-373.2" rx="27" ry="18"/>
<text text-anchor="middle" x="121" y="-369" font-family="Times,serif" font-size="14.00" fill="#000000">S4</text>
</g>
<!-- S3&#45;&gt;S4 -->
<g id="edge8" class="edge">
<title>S3-&gt;S4</title>
<path fill="none" stroke="#000000" d="M155.5046,-444.456C149.2805,-431.6025 140.7274,-413.9393 133.6941,-399.4148"/>
<polygon fill="#000000" stroke="#000000" points="136.8399,-397.8803 129.3315,-390.4054 130.5397,-400.9311 136.8399,-397.8803"/>
<text text-anchor="middle" x="154.9453" y="-413.4" font-family="Times,serif" font-size="14.00" fill="#000000">1/0</text>
</g>
<!-- S4&#45;&gt;S1 -->
<g id="edge10" class="edge">
<title>S4-&gt;S1</title>
<path fill="none" stroke="#000000" d="M107.3745,-388.7591C88.8076,-411.1057 56.4577,-454.4167 44.1094,-498 33.2149,-536.4522 40.4829,-582.9797 47.281,-611.9403"/>
<polygon fill="#000000" stroke="#000000" points="43.9157,-612.9107 49.7298,-621.7677 50.708,-611.2181 43.9157,-612.9107"/>
<text text-anchor="middle" x="53.9453" y="-502.2" font-family="Times,serif" font-size="14.00" fill="#000000">1/0</text>
</g>
<!-- S5 -->
<g id="node6" class="node">
<title>S5</title>
<ellipse fill="none" stroke="#000000" cx="121" cy="-284.4" rx="27" ry="18"/>
<text text-anchor="middle" x="121" y="-280.2" font-family="Times,serif" font-size="14.00" fill="#000000">S5</text>
</g>
<!-- S4&#45;&gt;S5 -->
<g id="edge9" class="edge">
<title>S4-&gt;S5</title>
<path fill="none" stroke="#000000" d="M121,-354.8006C121,-342.6949 121,-326.6076 121,-312.8674"/>
<polygon fill="#000000" stroke="#000000" points="124.5001,-312.472 121,-302.472 117.5001,-312.4721 124.5001,-312.472"/>
<text text-anchor="middle" x="129.9453" y="-324.6" font-family="Times,serif" font-size="14.00" fill="#000000">0/0</text>
</g>
<!-- S5&#45;&gt;S3 -->
<g id="edge11" class="edge">
<title>S5-&gt;S3</title>
<path fill="none" stroke="#000000" d="M131.889,-300.9206C135.6359,-306.9298 139.7121,-313.8548 143,-320.4 161.4047,-357.038 163.8873,-368.4059 168,-409.2 168.8079,-417.2133 168.5943,-425.9256 167.9639,-433.9202"/>
<polygon fill="#000000" stroke="#000000" points="164.4791,-433.5933 166.9457,-443.897 171.4429,-434.3041 164.4791,-433.5933"/>
<text text-anchor="middle" x="173.9453" y="-369" font-family="Times,serif" font-size="14.00" fill="#000000">0/0</text>
</g>
<!-- S6 -->
<g id="node7" class="node">
<title>S6</title>
<ellipse fill="none" stroke="#000000" cx="87" cy="-195.6" rx="27" ry="18"/>
<text text-anchor="middle" x="87" y="-191.4" font-family="Times,serif" font-size="14.00" fill="#000000">S6</text>
</g>
<!-- S5&#45;&gt;S6 -->
<g id="edge12" class="edge">
<title>S5-&gt;S6</title>
<path fill="none" stroke="#000000" d="M114.2827,-266.856C109.4397,-254.2071 102.8132,-236.9002 97.3036,-222.5105"/>
<polygon fill="#000000" stroke="#000000" points="100.5477,-221.1949 93.7034,-213.1076 94.0105,-223.698 100.5477,-221.1949"/>
<text text-anchor="middle" x="115.9453" y="-235.8" font-family="Times,serif" font-size="14.00" fill="#000000">1/0</text>
</g>
<!-- S6&#45;&gt;S2 -->
<g id="edge13" class="edge">
<title>S6-&gt;S2</title>
<path fill="none" stroke="#000000" d="M82.7291,-213.4038C75.0287,-247.7791 60.2299,-325.6826 67.1094,-391.2 72.026,-438.0237 84.8446,-491.3236 93.2316,-522.9521"/>
<polygon fill="#000000" stroke="#000000" points="89.906,-524.0626 95.8882,-532.8069 96.6647,-522.2405 89.906,-524.0626"/>
<text text-anchor="middle" x="76.9453" y="-369" font-family="Times,serif" font-size="14.00" fill="#000000">0/0</text>
</g>
<!-- S7 -->
<g id="node8" class="node">
<title>S7</title>
<ellipse fill="none" stroke="#000000" cx="87" cy="-106.8" rx="27" ry="18"/>
<text text-anchor="middle" x="87" y="-102.6" font-family="Times,serif" font-size="14.00" fill="#000000">S7</text>
</g>
<!-- S6&#45;&gt;S7 -->
<g id="edge14" class="edge">
<title>S6-&gt;S7</title>
<path fill="none" stroke="#000000" d="M87,-177.2006C87,-165.0949 87,-149.0076 87,-135.2674"/>
<polygon fill="#000000" stroke="#000000" points="90.5001,-134.872 87,-124.872 83.5001,-134.8721 90.5001,-134.872"/>
<text text-anchor="middle" x="95.9453" y="-147" font-family="Times,serif" font-size="14.00" fill="#000000">1/0</text>
</g>
<!-- S7&#45;&gt;S0 -->
<g id="edge16" class="edge">
<title>S7-&gt;S0</title>
<path fill="none" stroke="#000000" d="M64.5953,-117.462C38.8179,-131.4709 0,-158.6937 0,-195.6 0,-639.6 0,-639.6 0,-639.6 0,-676.5746 38.6491,-701.7849 68.1308,-715.6368"/>
<polygon fill="#000000" stroke="#000000" points="66.7615,-718.8584 77.32,-719.7356 69.6131,-712.4655 66.7615,-718.8584"/>
<text text-anchor="middle" x="8.9453" y="-413.4" font-family="Times,serif" font-size="14.00" fill="#000000">1/0</text>
</g>
<!-- S8 -->
<g id="node9" class="node">
<title>S8</title>
<ellipse fill="none" stroke="#000000" cx="230" cy="-18" rx="27" ry="18"/>
<text text-anchor="middle" x="230" y="-13.8" font-family="Times,serif" font-size="14.00" fill="#000000">S8</text>
</g>
<!-- S7&#45;&gt;S8 -->
<g id="edge15" class="edge">
<title>S7-&gt;S8</title>
<path fill="none" stroke="#000000" d="M106.8835,-94.4527C131.3976,-79.23 173.2448,-53.2438 201.2556,-35.8497"/>
<polygon fill="#000000" stroke="#000000" points="203.1754,-38.7775 209.8243,-30.5287 199.4826,-32.8308 203.1754,-38.7775"/>
<text text-anchor="middle" x="179.9453" y="-58.2" font-family="Times,serif" font-size="14.00" fill="#000000">0/0</text>
</g>
<!-- S8&#45;&gt;S0 -->
<g id="edge18" class="edge">
<title>S8-&gt;S0</title>
<path fill="none" stroke="#000000" d="M244.0515,-33.7486C257.5792,-50.5841 276,-78.673 276,-106.8 276,-639.6 276,-639.6 276,-639.6 276,-700.9568 189.3935,-719.9328 138.0336,-725.7915"/>
<polygon fill="#000000" stroke="#000000" points="137.5507,-722.3226 127.9602,-726.8252 138.2653,-729.286 137.5507,-722.3226"/>
<text text-anchor="middle" x="284.9453" y="-369" font-family="Times,serif" font-size="14.00" fill="#000000">1/0</text>
</g>
<!-- S8&#45;&gt;S3 -->
<g id="edge17" class="edge">
<title>S8-&gt;S3</title>
<path fill="none" stroke="#000000" d="M230,-36.0279C230,-53.9689 230,-82.2875 230,-106.8 230,-373.2 230,-373.2 230,-373.2 230,-400.8513 209.1308,-425.4836 190.8626,-441.7488"/>
<polygon fill="#000000" stroke="#000000" points="188.1165,-439.4869 182.7364,-448.614 192.634,-444.8341 188.1165,-439.4869"/>
<text text-anchor="middle" x="238.9453" y="-235.8" font-family="Times,serif" font-size="14.00" fill="#000000">0/0</text>
</g>
</g>
</svg>