<?xml version="1.0" encoding="UTF-8" standalone="no"?>
<!DOCTYPE svg PUBLIC "-//W3C//DTD SVG 1.1//EN" "http://www.w3.org/Graphics/SVG/1.1/DTD/svg11.dtd">
<!-- Generated by graphviz version 2.40.1 (20161225.0304)
 -->
<!-- Title: sequece_detector Pages: 1 -->
<svg width="424pt" height="666pt" viewBox="0.00 0.00 423.57 665.60" xmlns="http://www.w3.org/2000/svg" xmlns:xlink="http://www.w3.org/1999/xlink">
<g id="graph0" class="graph" transform="scale(1 1) rotate(0) translate(4 661.6)">
<title>sequece_detector</title>
<polygon fill="#ffffff" stroke="transparent" points="-4,4 -4,-661.6 419.57,-661.6 419.57,4 -4,4"/>
<!-- S0 -->
<g id="node1" class="node">
<title>S0</title>
<ellipse fill="none" stroke="#000000" cx="186.7848" cy="-639.6" rx="27" ry="18"/>
<text text-anchor="middle" x="186.7848" y="-635.4" font-family="Times,serif" font-size="14.00" fill="#000000">S0</text>
</g>
<!-- S0&#45;&gt;S0 -->
<g id="edge1" class="edge">
<title>S0-&gt;S0</title>
<path fill="none" stroke="#000000" d="M211.3173,-647.7211C222.2926,-648.4945 231.7848,-645.7875 231.7848,-639.6 231.7848,-635.4428 227.4999,-632.8567 221.3591,-631.8417"/>
<polygon fill="#000000" stroke="#000000" points="221.4372,-628.3424 211.3173,-631.4789 221.1844,-635.3378 221.4372,-628.3424"/>
<text text-anchor="middle" x="244.6774" y="-635.4" font-family="Times,serif" font-size="14.00" fill="#000000">in=0</text>
</g>
<!-- S1 -->
<g id="node2" class="node">
<title>S1</title>
<ellipse fill="none" stroke="#000000" cx="29.7848" cy="-550.8" rx="27" ry="18"/>
<text text-anchor="middle" x="29.7848" y="-546.6" font-family="Times,serif" font-size="14.00" fill="#000000">S1</text>
</g>
<!-- S0&#45;&gt;S1 -->
<g id="edge2" class="edge">
<title>S0-&gt;S1</title>
<path fill="none" stroke="#000000" d="M159.7668,-638.3443C113.7894,-635.5796 23.4117,-627.2082 3.9996,-603.6 -3.2894,-594.7354 .8076,-583.4653 7.691,-573.6158"/>
<polygon fill="#000000" stroke="#000000" points="10.4534,-575.7652 13.9396,-565.7603 4.9752,-571.4075 10.4534,-575.7652"/>
<text text-anchor="middle" x="17.6774" y="-591" font-family="Times,serif" font-size="14.00" fill="#000000">in=1</text>
</g>
<!-- S1&#45;&gt;S0 -->
<g id="edge4" class="edge">
<title>S1-&gt;S0</title>
<path fill="none" stroke="#000000" d="M33.4959,-568.8787C36.7632,-580.3791 42.6694,-594.726 52.9996,-603.6 67.5502,-616.0994 115.9031,-626.9981 150.2891,-633.4386"/>
<polygon fill="#000000" stroke="#000000" points="149.994,-636.9424 160.4594,-635.2911 151.2485,-630.0557 149.994,-636.9424"/>
<text text-anchor="middle" x="66.6774" y="-591" font-family="Times,serif" font-size="14.00" fill="#000000">in=1</text>
</g>
<!-- S2 -->
<g id="node3" class="node">
<title>S2</title>
<ellipse fill="none" stroke="#000000" cx="85.7848" cy="-462" rx="27" ry="18"/>
<text text-anchor="middle" x="85.7848" y="-457.8" font-family="Times,serif" font-size="14.00" fill="#000000">S2</text>
</g>
<!-- S1&#45;&gt;S2 -->
<g id="edge3" class="edge">
<title>S1-&gt;S2</title>
<path fill="none" stroke="#000000" d="M35.9636,-532.9503C40.0286,-522.3591 45.9042,-508.9139 52.9996,-498 56.0522,-493.3047 59.7205,-488.6286 63.4814,-484.2762"/>
<polygon fill="#000000" stroke="#000000" points="66.0923,-486.6073 70.2381,-476.8573 60.917,-481.8939 66.0923,-486.6073"/>
<text text-anchor="middle" x="66.6774" y="-502.2" font-family="Times,serif" font-size="14.00" fill="#000000">in=0</text>
</g>
<!-- S2&#45;&gt;S0 -->
<g id="edge6" class="edge">
<title>S2-&gt;S0</title>
<path fill="none" stroke="#000000" d="M86.9532,-480.112C88.9015,-501.9609 93.987,-539.4157 106.9996,-568.8 114.7941,-586.401 118.8393,-590.3307 132.7848,-603.6 140.1153,-610.575 148.9479,-617.0865 157.3268,-622.6014"/>
<polygon fill="#000000" stroke="#000000" points="155.4892,-625.5804 165.8122,-627.9653 159.2296,-619.6635 155.4892,-625.5804"/>
<text text-anchor="middle" x="119.6774" y="-546.6" font-family="Times,serif" font-size="14.00" fill="#000000">in=1</text>
</g>
<!-- S3 -->
<g id="node4" class="node">
<title>S3</title>
<ellipse fill="none" stroke="#000000" cx="131.7848" cy="-373.2" rx="27" ry="18"/>
<text text-anchor="middle" x="131.7848" y="-369" font-family="Times,serif" font-size="14.00" fill="#000000">S3</text>
</g>
<!-- S2&#45;&gt;S3 -->
<g id="edge5" class="edge">
<title>S2-&gt;S3</title>
<path fill="none" stroke="#000000" d="M89.0498,-443.6631C91.406,-433.1508 95.2097,-419.9508 100.9996,-409.2 103.4708,-404.6114 106.6052,-400.0885 109.9229,-395.8798"/>
<polygon fill="#000000" stroke="#000000" points="112.604,-398.1297 116.4028,-388.2393 107.2654,-393.6021 112.604,-398.1297"/>
<text text-anchor="middle" x="113.6774" y="-413.4" font-family="Times,serif" font-size="14.00" fill="#000000">in=0</text>
</g>
<!-- S3&#45;&gt;S0 -->
<g id="edge7" class="edge">
<title>S3-&gt;S0</title>
<path fill="none" stroke="#000000" d="M132.7065,-391.2343C134.3175,-418.2893 138.3361,-470.8946 146.9996,-514.8 154.9556,-555.1194 159.5942,-564.6775 172.7848,-603.6 173.7857,-606.5533 174.8848,-609.6215 176.0136,-612.6654"/>
<polygon fill="#000000" stroke="#000000" points="172.7943,-614.046 179.6359,-622.1357 179.3324,-611.5452 172.7943,-614.046"/>
<text text-anchor="middle" x="159.6774" y="-502.2" font-family="Times,serif" font-size="14.00" fill="#000000">in=0</text>
</g>
<!-- S4 -->
<g id="node5" class="node">
<title>S4</title>
<ellipse fill="none" stroke="#000000" cx="185.7848" cy="-284.4" rx="27" ry="18"/>
<text text-anchor="middle" x="185.7848" y="-280.2" font-family="Times,serif" font-size="14.00" fill="#000000">S4</text>
</g>
<!-- S3&#45;&gt;S4 -->
<g id="edge8" class="edge">
<title>S3-&gt;S4</title>
<path fill="none" stroke="#000000" d="M134.4909,-355.0948C136.6787,-344.413 140.5007,-330.9623 146.9996,-320.4 150.475,-314.7516 155.0744,-309.4262 159.8875,-304.6908"/>
<polygon fill="#000000" stroke="#000000" points="162.4514,-307.0901 167.4961,-297.7734 157.7425,-301.9107 162.4514,-307.0901"/>
<text text-anchor="middle" x="159.6774" y="-324.6" font-family="Times,serif" font-size="14.00" fill="#000000">in=1</text>
</g>
<!-- S4&#45;&gt;S0 -->
<g id="edge10" class="edge">
<title>S4-&gt;S0</title>
<path fill="none" stroke="#000000" d="M186.1067,-302.4272C186.3991,-320.3677 186.7848,-348.6859 186.7848,-373.2 186.7848,-550.8 186.7848,-550.8 186.7848,-550.8 186.7848,-571.0994 186.7848,-594.009 186.7848,-611.4736"/>
<polygon fill="#000000" stroke="#000000" points="183.2849,-611.5721 186.7848,-621.5721 190.2849,-611.5721 183.2849,-611.5721"/>
<text text-anchor="middle" x="199.6774" y="-457.8" font-family="Times,serif" font-size="14.00" fill="#000000">in=1</text>
</g>
<!-- S5 -->
<g id="node6" class="node">
<title>S5</title>
<ellipse fill="none" stroke="#000000" cx="231.7848" cy="-195.6" rx="27" ry="18"/>
<text text-anchor="middle" x="231.7848" y="-191.4" font-family="Times,serif" font-size="14.00" fill="#000000">S5</text>
</g>
<!-- S4&#45;&gt;S5 -->
<g id="edge9" class="edge">
<title>S4-&gt;S5</title>
<path fill="none" stroke="#000000" d="M189.0498,-266.0631C191.406,-255.5508 195.2097,-242.3508 200.9996,-231.6 203.4708,-227.0114 206.6052,-222.4885 209.9229,-218.2798"/>
<polygon fill="#000000" stroke="#000000" points="212.604,-220.5297 216.4028,-210.6393 207.2654,-216.0021 212.604,-220.5297"/>
<text text-anchor="middle" x="213.6774" y="-235.8" font-family="Times,serif" font-size="14.00" fill="#000000">in=0</text>
</g>
<!-- S5&#45;&gt;S0 -->
<g id="edge11" class="edge">
<title>S5-&gt;S0</title>
<path fill="none" stroke="#000000" d="M234.682,-213.5738C237.313,-231.4737 240.7848,-259.7619 240.7848,-284.4 240.7848,-550.8 240.7848,-550.8 240.7848,-550.8 240.7848,-576.2299 224.4179,-600.5741 209.7053,-617.3204"/>
<polygon fill="#000000" stroke="#000000" points="206.9138,-615.184 202.6945,-624.9025 212.0534,-619.9363 206.9138,-615.184"/>
<text text-anchor="middle" x="253.6774" y="-413.4" font-family="Times,serif" font-size="14.00" fill="#000000">in=0</text>
</g>
<!-- S6 -->
<g id="node7" class="node">
<title>S6</title>
<ellipse fill="none" stroke="#000000" cx="285.7848" cy="-106.8" rx="27" ry="18"/>
<text text-anchor="middle" x="285.7848" y="-102.6" font-family="Times,serif" font-size="14.00" fill="#000000">S6</text>
</g>
<!-- S5&#45;&gt;S6 -->
<g id="edge12" class="edge">
<title>S5-&gt;S6</title>
<path fill="none" stroke="#000000" d="M234.4909,-177.4948C236.6787,-166.813 240.5007,-153.3623 246.9996,-142.8 250.475,-137.1516 255.0744,-131.8262 259.8875,-127.0908"/>
<polygon fill="#000000" stroke="#000000" points="262.4514,-129.4901 267.4961,-120.1734 257.7425,-124.3107 262.4514,-129.4901"/>
<text text-anchor="middle" x="259.6774" y="-147" font-family="Times,serif" font-size="14.00" fill="#000000">in=1</text>
</g>
<!-- S6&#45;&gt;S0 -->
<g id="edge13" class="edge">
<title>S6-&gt;S0</title>
<path fill="none" stroke="#000000" d="M286.1067,-124.8272C286.3991,-142.7677 286.7848,-171.0859 286.7848,-195.6 286.7848,-550.8 286.7848,-550.8 286.7848,-550.8 286.7848,-587.3051 249.0648,-612.4652 219.9575,-626.4459"/>
<polygon fill="#000000" stroke="#000000" points="218.1345,-623.4301 210.4834,-630.7589 221.0349,-629.801 218.1345,-623.4301"/>
<text text-anchor="middle" x="299.6774" y="-369" font-family="Times,serif" font-size="14.00" fill="#000000">in=0</text>
</g>
<!-- S7 -->
<g id="node8" class="node">
<title>S7</title>
<ellipse fill="none" stroke="#000000" cx="340.7848" cy="-18" rx="27" ry="18"/>
<text text-anchor="middle" x="340.7848" y="-13.8" font-family="Times,serif" font-size="14.00" fill="#000000">S7</text>
</g>
<!-- S6&#45;&gt;S7 -->
<g id="edge14" class="edge">
<title>S6-&gt;S7</title>
<path fill="none" stroke="#000000" d="M288.4423,-88.6647C290.6129,-77.9722 294.4338,-64.5209 300.9996,-54 304.5597,-48.2954 309.2755,-42.9455 314.2122,-38.2038"/>
<polygon fill="#000000" stroke="#000000" points="316.8526,-40.5406 322.0172,-31.2897 312.211,-35.3008 316.8526,-40.5406"/>
<text text-anchor="middle" x="313.6774" y="-58.2" font-family="Times,serif" font-size="14.00" fill="#000000">in=1</text>
</g>
<!-- S7&#45;&gt;S0 -->
<g id="edge15" class="edge">
<title>S7-&gt;S0</title>
<path fill="none" stroke="#000000" d="M340.7848,-36.0279C340.7848,-53.9689 340.7848,-82.2875 340.7848,-106.8 340.7848,-550.8 340.7848,-550.8 340.7848,-550.8 340.7848,-604.6285 269.3017,-626.3286 223.739,-634.6929"/>
<polygon fill="#000000" stroke="#000000" points="222.8821,-631.2882 213.6096,-636.4136 224.0545,-638.1894 222.8821,-631.2882"/>
<text text-anchor="middle" x="353.6774" y="-324.6" font-family="Times,serif" font-size="14.00" fill="#000000">in=0</text>
</g>
<!-- S7&#45;&gt;S0 -->
<g id="edge16" class="edge">
<title>S7-&gt;S0</title>
<path fill="none" stroke="#000000" d="M355.4864,-33.2796C369.9197,-49.9464 389.7848,-78.099 389.7848,-106.8 389.7848,-550.8 389.7848,-550.8 389.7848,-550.8 389.7848,-585.332 363.1808,-587.2126 332.7848,-603.6 298.4565,-622.1074 254.4761,-631.2739 223.7979,-635.6989"/>
<polygon fill="#000000" stroke="#000000" points="222.9855,-632.2764 213.5391,-637.0739 223.9154,-639.2144 222.9855,-632.2764"/>
<text text-anchor="middle" x="402.6774" y="-324.6" font-family="Times,serif" font-size="14.00" fill="#000000">in=1</text>
</g>
</g>
</svg>