<?xml version="1.0" encoding="UTF-8" standalone="no"?>
<!DOCTYPE svg PUBLIC "-//W3C//DTD SVG 1.1//EN" "http://www.w3.org/Graphics/SVG/1.1/DTD/svg11.dtd">
<!-- Generated by graphviz version 2.40.1 (20161225.0304)
 -->
<!-- Title: sequece_detector Pages: 1 -->
<svg width="847pt" height="896pt" viewBox="0.00 0.00 847.10 895.96" xmlns="http://www.w3.org/2000/svg" xmlns:xlink="http://www.w3.org/1999/xlink">
<g id="graph0" class="graph" transform="scale(1 1) rotate(0) translate(36 859.9577)">
<title>sequece_detector</title>
<polygon fill="#ffffff" stroke="transparent" points="-36,36 -36,-859.9577 811.1038,-859.9577 811.1038,36 -36,36"/>
<!-- S0 -->
<g id="node1" class="node">
<title>S0</title>
<ellipse fill="none" stroke="#000000" cx="333" cy="-805.2" rx="27" ry="18"/>
<text text-anchor="middle" x="333" y="-801" font-family="Times,serif" font-size="14.00" fill="#000000">S0</text>
</g>
<!-- S0&#45;&gt;S0 -->
<g id="edge1" class="edge">
<title>S0-&gt;S0</title>
<path fill="none" stroke="#000000" d="M358.3573,-811.4805C391.7168,-816.8638 432,-814.7703 432,-805.2 432,-796.5643 399.2004,-794.0164 368.2847,-797.5563"/>
<polygon fill="#000000" stroke="#000000" points="367.7881,-794.0915 358.3573,-798.9195 368.7405,-801.0264 367.7881,-794.0915"/>
<text text-anchor="middle" x="454.9453" y="-801" font-family="Times,serif" font-size="14.00" fill="#000000">  00/000</text>
</g>
<!-- S0&#45;&gt;S0 -->
<g id="edge3" class="edge">
<title>S0-&gt;S0</title>
<path fill="none" stroke="#000000" d="M357.1151,-813.3464C417.108,-829.3051 504,-826.5896 504,-805.2 504,-784.9801 426.3519,-781.4477 367.1804,-794.6029"/>
<polygon fill="#000000" stroke="#000000" points="366.0033,-791.2872 357.1151,-797.0536 367.6593,-798.0885 366.0033,-791.2872"/>
<text text-anchor="middle" x="526.9453" y="-801" font-family="Times,serif" font-size="14.00" fill="#000000">  10/001</text>
</g>
<!-- S1 -->
<g id="node2" class="node">
<title>S1</title>
<ellipse fill="none" stroke="#000000" cx="27" cy="-608.4" rx="27" ry="18"/>
<text text-anchor="middle" x="27" y="-604.2" font-family="Times,serif" font-size="14.00" fill="#000000">S1</text>
</g>
<!-- S0&#45;&gt;S1 -->
<g id="edge2" class="edge">
<title>S0-&gt;S1</title>
<path fill="none" stroke="#000000" d="M306.6754,-800.734C241.8384,-789.1858 77.1641,-756.345 42.1094,-715.2 23.7846,-693.6915 21.8125,-660.4343 23.2822,-636.7505"/>
<polygon fill="#000000" stroke="#000000" points="26.7837,-636.8821 24.1533,-626.6191 19.8095,-636.2824 26.7837,-636.8821"/>
<text text-anchor="middle" x="62.4453" y="-702.6" font-family="Times,serif" font-size="14.00" fill="#000000">01/000</text>
</g>
<!-- S5 -->
<g id="node3" class="node">
<title>S5</title>
<ellipse fill="none" stroke="#000000" cx="405" cy="-608.4" rx="27" ry="18"/>
<text text-anchor="middle" x="405" y="-604.2" font-family="Times,serif" font-size="14.00" fill="#000000">S5</text>
</g>
<!-- S0&#45;&gt;S5 -->
<g id="edge4" class="edge">
<title>S0-&gt;S5</title>
<path fill="none" stroke="#000000" d="M339.5165,-787.3882C352.1536,-752.847 380.0608,-676.5671 395.0381,-635.6293"/>
<polygon fill="#000000" stroke="#000000" points="398.4011,-636.6235 398.5501,-626.0297 391.8273,-634.2184 398.4011,-636.6235"/>
<text text-anchor="middle" x="391.4453" y="-702.6" font-family="Times,serif" font-size="14.00" fill="#000000">11/100</text>
</g>
<!-- S1&#45;&gt;S0 -->
<g id="edge6" class="edge">
<title>S1-&gt;S0</title>
<path fill="none" stroke="#000000" d="M44.0621,-622.7864C69.8342,-644.1927 120.6276,-685.1308 167.1094,-715.2 212.374,-744.4818 267.9788,-773.3005 301.9354,-790.1561"/>
<polygon fill="#000000" stroke="#000000" points="300.3955,-793.2991 310.9122,-794.5835 303.4919,-787.0211 300.3955,-793.2991"/>
<text text-anchor="middle" x="187.4453" y="-702.6" font-family="Times,serif" font-size="14.00" fill="#000000">01/001</text>
</g>
<!-- S1&#45;&gt;S1 -->
<g id="edge5" class="edge">
<title>S1-&gt;S1</title>
<path fill="none" stroke="#000000" d="M48.3904,-619.5973C82.4297,-632.0387 126,-628.3063 126,-608.4 126,-590.36 90.2162,-585.6033 58.1715,-594.13"/>
<polygon fill="#000000" stroke="#000000" points="56.8817,-590.8665 48.3904,-597.2027 58.9797,-597.5447 56.8817,-590.8665"/>
<text text-anchor="middle" x="148.9453" y="-604.2" font-family="Times,serif" font-size="14.00" fill="#000000">  00/000</text>
</g>
<!-- S3 -->
<g id="node4" class="node">
<title>S3</title>
<ellipse fill="none" stroke="#000000" cx="230" cy="-411.6" rx="27" ry="18"/>
<text text-anchor="middle" x="230" y="-407.4" font-family="Times,serif" font-size="14.00" fill="#000000">S3</text>
</g>
<!-- S1&#45;&gt;S3 -->
<g id="edge7" class="edge">
<title>S1-&gt;S3</title>
<path fill="none" stroke="#000000" d="M42.592,-593.2842C78.2519,-558.7134 165.8774,-473.7642 207.4325,-433.4782"/>
<polygon fill="#000000" stroke="#000000" points="209.8891,-435.9715 214.6328,-426.4979 205.0166,-430.9455 209.8891,-435.9715"/>
<text text-anchor="middle" x="154.4453" y="-505.8" font-family="Times,serif" font-size="14.00" fill="#000000">10/010</text>
</g>
<!-- S6 -->
<g id="node5" class="node">
<title>S6</title>
<ellipse fill="none" stroke="#000000" cx="69" cy="-411.6" rx="27" ry="18"/>
<text text-anchor="middle" x="69" y="-407.4" font-family="Times,serif" font-size="14.00" fill="#000000">S6</text>
</g>
<!-- S1&#45;&gt;S6 -->
<g id="edge8" class="edge">
<title>S1-&gt;S6</title>
<path fill="none" stroke="#000000" d="M28.7446,-590.111C30.9785,-568.7238 35.3839,-532.3329 42.1094,-501.6 46.7722,-480.2929 53.9029,-456.6832 59.65,-438.993"/>
<polygon fill="#000000" stroke="#000000" points="63.0309,-439.9167 62.8448,-429.3235 56.3843,-437.7206 63.0309,-439.9167"/>
<text text-anchor="middle" x="62.4453" y="-505.8" font-family="Times,serif" font-size="14.00" fill="#000000">11/010</text>
</g>
<!-- S5a -->
<g id="node6" class="node">
<title>S5a</title>
<ellipse fill="none" stroke="#000000" cx="482" cy="-411.6" rx="27" ry="18"/>
<text text-anchor="middle" x="482" y="-407.4" font-family="Times,serif" font-size="14.00" fill="#000000">S5a</text>
</g>
<!-- S5&#45;&gt;S5a -->
<g id="edge10" class="edge">
<title>S5-&gt;S5a</title>
<path fill="none" stroke="#000000" d="M411.8332,-590.9353C425.3323,-556.4339 455.4962,-479.3396 471.5233,-438.3769"/>
<polygon fill="#000000" stroke="#000000" points="474.7978,-439.6134 475.1821,-429.0255 468.279,-437.0628 474.7978,-439.6134"/>
<text text-anchor="middle" x="468.5519" y="-505.8" font-family="Times,serif" font-size="14.00" fill="#000000">XX/100</text>
</g>
<!-- S3&#45;&gt;S0 -->
<g id="edge9" class="edge">
<title>S3-&gt;S0</title>
<path fill="none" stroke="#000000" d="M234.7209,-429.6403C251.1519,-492.4289 305.9118,-701.6863 325.7472,-777.4845"/>
<polygon fill="#000000" stroke="#000000" points="322.389,-778.4769 328.3067,-787.265 329.1609,-776.7047 322.389,-778.4769"/>
<text text-anchor="middle" x="307.5519" y="-604.2" font-family="Times,serif" font-size="14.00" fill="#000000">XX/001</text>
</g>
<!-- S6a -->
<g id="node7" class="node">
<title>S6a</title>
<ellipse fill="none" stroke="#000000" cx="479" cy="-214.8" rx="27" ry="18"/>
<text text-anchor="middle" x="479" y="-210.6" font-family="Times,serif" font-size="14.00" fill="#000000">S6a</text>
</g>
<!-- S6&#45;&gt;S6a -->
<g id="edge12" class="edge">
<title>S6-&gt;S6a</title>
<path fill="none" stroke="#000000" d="M91.0434,-401.0192C159.452,-368.183 368.2923,-267.9397 447.8096,-229.7714"/>
<polygon fill="#000000" stroke="#000000" points="449.347,-232.9158 456.8476,-225.4331 446.3178,-226.6052 449.347,-232.9158"/>
<text text-anchor="middle" x="309.5519" y="-309" font-family="Times,serif" font-size="14.00" fill="#000000">XX/100</text>
</g>
<!-- S5a&#45;&gt;S0 -->
<g id="edge11" class="edge">
<title>S5a-&gt;S0</title>
<path fill="none" stroke="#000000" d="M491.0799,-428.8336C501.0347,-449.8176 514.8659,-486.421 509,-518.4 491.9654,-611.2679 483.5316,-638.1226 429,-715.2 409.4307,-742.8602 380.3146,-768.6785 359.2818,-785.5052"/>
<polygon fill="#000000" stroke="#000000" points="357.078,-782.7854 351.3744,-791.714 361.4011,-788.2911 357.078,-782.7854"/>
<text text-anchor="middle" x="516.5519" y="-604.2" font-family="Times,serif" font-size="14.00" fill="#000000">XX/001</text>
</g>
<!-- S6b -->
<g id="node8" class="node">
<title>S6b</title>
<ellipse fill="none" stroke="#000000" cx="662" cy="-18" rx="27" ry="18"/>
<text text-anchor="middle" x="662" y="-13.8" font-family="Times,serif" font-size="14.00" fill="#000000">S6b</text>
</g>
<!-- S6a&#45;&gt;S6b -->
<g id="edge13" class="edge">
<title>S6a-&gt;S6b</title>
<path fill="none" stroke="#000000" d="M493.3597,-199.3574C525.4307,-164.8679 603.0181,-81.4298 640.7231,-40.8814"/>
<polygon fill="#000000" stroke="#000000" points="643.4604,-43.0774 647.707,-33.3708 638.3342,-38.3106 643.4604,-43.0774"/>
<text text-anchor="middle" x="598.5519" y="-112.2" font-family="Times,serif" font-size="14.00" fill="#000000">XX/010</text>
</g>
<!-- S6b&#45;&gt;S0 -->
<g id="edge14" class="edge">
<title>S6b-&gt;S0</title>
<path fill="none" stroke="#000000" d="M672.1803,-34.9553C691.15,-68.2093 730,-144.8522 730,-214.8 730,-608.4 730,-608.4 730,-608.4 730,-688.8391 465.0629,-769.1887 368.0502,-795.9141"/>
<polygon fill="#000000" stroke="#000000" points="366.8613,-792.6105 358.1353,-798.6193 368.704,-799.3636 366.8613,-792.6105"/>
<text text-anchor="middle" x="752.5519" y="-407.4" font-family="Times,serif" font-size="14.00" fill="#000000">XX/001</text>
</g>
</g>
</svg>